<svg width="933" height="193" viewBox="0 0 933 193" fill="none" xmlns="http://www.w3.org/2000/svg">
<path d="M347.15 69.8V176H314V123.05L297.65 176H269.15L252.8 123.05V176H219.5V69.8H260.3L283.7 133.55L306.5 69.8H347.15ZM437.776 159.95H402.376L397.126 176H362.176L401.026 69.8H439.426L478.126 176H443.026L437.776 159.95ZM429.676 134.9L420.076 105.35L410.476 134.9H429.676ZM546.591 176L526.641 137.9H526.491V176H493.191V69.8H542.691C551.291 69.8 558.641 71.35 564.741 74.45C570.841 77.45 575.391 81.6 578.391 86.9C581.491 92.1 583.041 98 583.041 104.6C583.041 111.7 581.041 118 577.041 123.5C573.141 129 567.491 132.95 560.091 135.35L583.191 176H546.591ZM526.491 115.7H539.691C542.891 115.7 545.291 115 546.891 113.6C548.491 112.1 549.291 109.8 549.291 106.7C549.291 103.9 548.441 101.7 546.741 100.1C545.141 98.5 542.791 97.7 539.691 97.7H526.491V115.7ZM634.48 69.8V176H601.18V69.8H634.48Z" fill="#1D37BF"/>
<path d="M708.77 177.05C698.77 177.05 689.57 174.7 681.17 170C672.87 165.3 666.27 158.8 661.37 150.5C656.47 142.2 654.02 132.85 654.02 122.45C654.02 112.05 656.47 102.7 661.37 94.4C666.27 86.1 672.87 79.65 681.17 75.05C689.57 70.35 698.77 68 708.77 68C718.77 68 727.92 70.35 736.22 75.05C744.52 79.65 751.07 86.1 755.87 94.4C760.77 102.7 763.22 112.05 763.22 122.45C763.22 132.85 760.77 142.2 755.87 150.5C751.07 158.8 744.47 165.3 736.07 170C727.77 174.7 718.67 177.05 708.77 177.05ZM708.77 146C715.37 146 720.47 143.9 724.07 139.7C727.67 135.4 729.47 129.65 729.47 122.45C729.47 115.15 727.67 109.4 724.07 105.2C720.47 100.9 715.37 98.75 708.77 98.75C702.07 98.75 696.92 100.9 693.32 105.2C689.72 109.4 687.92 115.15 687.92 122.45C687.92 129.65 689.72 135.4 693.32 139.7C696.92 143.9 702.07 146 708.77 146ZM884.582 176H851.282L816.032 122.6V176H782.732V69.8H816.032L851.282 124.1V69.8H884.582V176Z" fill="#F8B200"/>
<path d="M82.5 0C84.688 0 86.7865 0.869194 88.3336 2.41637C89.8808 3.96354 90.75 6.06196 90.75 8.25V19.25C90.75 21.438 89.8808 23.5365 88.3336 25.0836C86.7865 26.6308 84.688 27.5 82.5 27.5C80.312 27.5 78.2135 26.6308 76.6664 25.0836C75.1192 23.5365 74.25 21.438 74.25 19.25V8.25C74.25 6.06196 75.1192 3.96354 76.6664 2.41637C78.2135 0.869194 80.312 0 82.5 0ZM140.58 24.42C142.125 25.9669 142.993 28.0637 142.993 30.25C142.993 32.4363 142.125 34.5331 140.58 36.08L132.803 43.857C132.048 44.6676 131.137 45.3177 130.125 45.7686C129.113 46.2195 128.02 46.462 126.913 46.4815C125.805 46.5011 124.705 46.2973 123.677 45.8823C122.65 45.4674 121.717 44.8498 120.934 44.0664C120.15 43.283 119.533 42.3498 119.118 41.3226C118.703 40.2953 118.499 39.195 118.518 38.0873C118.538 36.9795 118.78 35.8871 119.231 34.8751C119.682 33.8631 120.332 32.9523 121.143 32.197L128.92 24.42C130.467 22.875 132.564 22.0073 134.75 22.0073C136.936 22.0073 139.033 22.875 140.58 24.42ZM24.42 36.08C22.9627 34.5161 22.1694 32.4476 22.2071 30.3103C22.2448 28.1729 23.1106 26.1337 24.6222 24.6222C26.1337 23.1106 28.1729 22.2448 30.3103 22.2071C32.4476 22.1694 34.5161 22.9627 36.08 24.42L43.857 32.197C45.3143 33.7609 46.1076 35.8294 46.0699 37.9667C46.0322 40.1041 45.1664 42.1433 43.6548 43.6548C42.1433 45.1664 40.1041 46.0322 37.9667 46.0699C35.8294 46.1076 33.7609 45.3143 32.197 43.857L24.42 36.08ZM165 82.5C165 84.688 164.131 86.7865 162.584 88.3336C161.036 89.8808 158.938 90.75 156.75 90.75H145.75C143.562 90.75 141.464 89.8808 139.916 88.3336C138.369 86.7865 137.5 84.688 137.5 82.5C137.5 80.312 138.369 78.2135 139.916 76.6664C141.464 75.1192 143.562 74.25 145.75 74.25H156.75C158.938 74.25 161.036 75.1192 162.584 76.6664C164.131 78.2135 165 80.312 165 82.5ZM19.25 90.75C21.438 90.75 23.5365 89.8808 25.0836 88.3336C26.6308 86.7865 27.5 84.688 27.5 82.5C27.5 80.312 26.6308 78.2135 25.0836 76.6664C23.5365 75.1192 21.438 74.25 19.25 74.25H8.25C6.06196 74.25 3.96354 75.1192 2.41637 76.6664C0.869194 78.2135 0 80.312 0 82.5C0 84.688 0.869194 86.7865 2.41637 88.3336C3.96354 89.8808 6.06196 90.75 8.25 90.75H19.25ZM63.25 167.75C63.25 165.562 64.1192 163.464 65.6664 161.916C67.2135 160.369 69.312 159.5 71.5 159.5H93.5C95.688 159.5 97.7865 160.369 99.3336 161.916C100.881 163.464 101.75 165.562 101.75 167.75C101.75 169.938 100.881 172.036 99.3336 173.584C97.7865 175.131 95.688 176 93.5 176H71.5C69.312 176 67.2135 175.131 65.6664 173.584C64.1192 172.036 63.25 169.938 63.25 167.75Z" fill="#1D37BF"/>
<path fill-rule="evenodd" clip-rule="evenodd" d="M82.4995 38.5C69.3713 38.5 56.7808 43.7152 47.4977 52.9982C38.2147 62.2813 32.9995 74.8718 32.9995 88C32.9995 104.83 43.1855 115.115 51.8975 123.904L54.0975 126.137C54.6475 126.687 54.9885 127.501 54.9885 128.425C54.9995 139.513 63.9865 148.5 75.0745 148.5H90.0895C101.09 148.5 110.011 139.59 110.011 128.59C110.011 127.677 110.374 126.841 110.979 126.247L111.716 125.521C120.912 116.512 132 105.655 132 88C132 74.8718 126.784 62.2813 117.501 52.9982C108.218 43.7152 95.6277 38.5 82.4995 38.5ZM49.4995 88C49.4995 79.2479 52.9763 70.8542 59.165 64.6655C65.3537 58.4768 73.7474 55 82.4995 55C91.2517 55 99.6453 58.4768 105.834 64.6655C112.023 70.8542 115.5 79.2479 115.5 88C115.5 98.208 109.56 104.522 99.4175 114.466C95.6005 118.206 93.4995 123.299 93.4995 128.579C93.501 129.028 93.4138 129.472 93.2431 129.887C93.0724 130.302 92.8214 130.68 92.5046 130.997C92.1879 131.315 91.8115 131.567 91.397 131.739C90.9826 131.911 90.5382 132 90.0895 132H75.0635C74.1163 131.994 73.2098 131.614 72.542 130.942C71.8743 130.27 71.4995 129.361 71.4995 128.414C71.4995 123.343 69.5745 118.36 65.9225 114.609L64.6575 113.322C54.8895 103.367 49.4995 97.834 49.4995 88Z" fill="#1D37BF"/>
</svg>
